<?xml version="1.0" standalone="no"?> <!DOCTYPE svg PUBLIC "-//W3C//DTD SVG 1.0//EN" "http://www.w3.org/TR/2001/REC-SVG-20010904/DTD/svg10.dtd" > <svg xmlns="http://www.w3.org/2000/svg" width="100%" height="100%">
<defs >
<font id="universlt67condensedbold" horiz-adv-x="407" ><font-face
    font-family="Univers LT 47 CondensedLt"
    units-per-em="1000"
    panose-1="2 0 8 3 6 0 0 2 0 3"
    ascent="969"
    descent="-250"
    alphabetic="0" />
<missing-glyph horiz-adv-x="222" />
<glyph unicode=" " glyph-name="space" horiz-adv-x="222" />
<glyph unicode="!" glyph-name="exclam" horiz-adv-x="333" d="M226 120V0H106V120H226ZM214 193H118L96 722H236L214 193Z" />
<glyph unicode="&quot;" glyph-name="quotedbl" horiz-adv-x="333" d="M15 463V722H135V463H15ZM198 463V722H318V463H198Z" />
<glyph unicode="#" glyph-name="numbersign" horiz-adv-x="444" d="M172 295H258L272 403H186L172 295ZM73 193H-2V295H86L100 403H27V505H113L138 698H224L199 505H285L310 698H396L371 505H446V403H358L344 295H417V193H331L306 0H220L245 193H159L134 0H48L73 193Z" />
<glyph unicode="$" glyph-name="dollar" horiz-adv-x="444" d="M200 603Q178 596 168 581T157 535Q157 512 168 490T200 451V603ZM243 95Q267 100 281 117T295 169Q295 202 281 223T243 261V95ZM200 289Q170 307 138 328T80 377T36 441T19 526Q19 570 33 602T71
657T129 691T200 707V784H243V707Q295 706 329 693T384 655T413 592T422 505H290Q291 520 290 536T283 566T268 590T243 603V423Q273 405 306 385T368 338T414 274T433 183Q433 130 418 95T378 37T317 5T243 -9V-95H200V-9Q139 -9 102 7T45 51T17 120T10 211H148Q148
193 149 174T154 139T169 110T200 95V289Z" />
<glyph unicode="%" glyph-name="percent" horiz-adv-x="778" d="M176 408Q209 408 217 433T225 520Q225 533 225 550T220 582T205 608T176 619Q157 619 147 609T133 583T128 550T127 520Q127 458 135 433T176 408ZM602 79Q635 79 643 104T651 191Q651 204 651
221T646 253T631 279T602 290Q583 290 573 280T559 254T554 221T553 191Q553 129 561 104T602 79ZM277 -21H203L495 711H569L277 -21ZM176 329Q134 329 106 340T62 374T39 431T32 509Q32 548 37 582T58 642T102 683T176 698Q221 698 249 683T293 643T314 583T320
509Q320 465 313 431T290 375T246 341T176 329ZM602 0Q560 0 532 11T488 45T465 102T458 180Q458 219 463 253T484 313T528 354T602 369Q647 369 675 354T719 314T740 254T746 180Q746 136 739 102T716 46T672 12T602 0Z" />
<glyph unicode="&amp;" glyph-name="ampersand" horiz-adv-x="667" d="M265 483Q278 491 291 501T314 524T330 550T337 582Q337 611 321 627T275 644Q251 644 232 629T212 587Q212 556 228 531T265 483ZM236 324Q209 303 186 273T163 207Q163 155 192 126T273
96Q305 96 334 107T383 144L236 324ZM471 57Q428 15 378 2T270 -12Q145 -12 79 44T12 207Q12 243 23 273T54 328T100 374T154 413Q140 431 126 451T100 493T81 541T74 594Q74 624 91 649T137 694T206 723T292 734Q318 734 350 728T409 705T456 661T475 593Q475
558 464 531T436 481T396 438T352 399L465 251Q470 269 473 283T478 314T480 349T481 395H603Q603 367 602 336T597 273T582 209T554 148L663 0H515L471 57Z" />
<glyph unicode="&apos;" glyph-name="quotesingle" horiz-adv-x="250" d="M65 463V722H185V463H65Z" />
<glyph unicode="(" glyph-name="parenleft" horiz-adv-x="278" d="M218 755Q207 709 196 659T175 553T159 441T153 324Q153 257 160 197T176 83T197 -22T218 -121H139Q121 -69 103 -13T69 99T43 213T33 325Q33 381 44 441T71 558T105 666T139 755H218Z" />
<glyph unicode=")" glyph-name="parenright" horiz-adv-x="278" d="M60 -121Q71 -75 82 -25T103 81T119 193T125 310Q125 377 118 437T102 551T81 656T60 755H139Q157 702 175 647T209 535T235 421T245 309Q245 253 234 193T207 76T173 -32T139 -121H60Z" />
<glyph unicode="*" glyph-name="asterisk" horiz-adv-x="444" d="M165 353L80 405L169 518L32 500V597L169 580L88 688L172 734L222 610L272 734L356 688L275 580L412 597V500L275 518L364 405L279 353L222 490L165 353Z" />
<glyph unicode="+" glyph-name="plus" horiz-adv-x="500" d="M195 505H306V308H475V197H306V0H195V197H25V308H195V505Z" />
<glyph unicode="," glyph-name="comma" horiz-adv-x="222" d="M66 132H197L121 -97H25L66 132Z" />
<glyph unicode="-" glyph-name="hyphen" horiz-adv-x="333" d="M289 321V219H44V321H289Z" />
<glyph unicode="." glyph-name="period" horiz-adv-x="222" d="M171 132V0H51V132H171Z" />
<glyph unicode="/" glyph-name="slash" horiz-adv-x="278" d="M-32 -96L207 722H309L71 -96H-32Z" />
<glyph unicode="0" glyph-name="zero" horiz-adv-x="444" d="M222 605Q199 605 187 595T169 558T162 480T161 349Q161 270 162 220T170 142T189 104T222 93Q243 93 255 103T273 142T281 220T283 349Q283 430 282 480T275 557T257 595T222 605ZM222 707Q286 707
326 689T387 629T416 519T424 351Q424 269 419 203T394 89T333 17T222 -9Q151 -9 111 16T51 89T25 202T20 351Q20 451 27 519T56 629T117 689T222 707Z" />
<glyph unicode="1" glyph-name="one" horiz-adv-x="444" d="M49 590Q87 611 122 637T184 698H318V0H167V537Q140 514 110 495T49 459V590Z" />
<glyph unicode="2" glyph-name="two" horiz-adv-x="444" d="M12 0V123Q67 196 108 249T178 341T227 407T258 456T273 496T278 537Q278 563 267 584T225 605Q203 605 191 596T173 572T166 540T164 505H23Q15 603 66 655T215 707Q260 707 297 698T362 667T404 611T419
527Q419 488 405 448T369 368T318 291T261 220T206 158T160 108H426V0H12Z" />
<glyph unicode="3" glyph-name="three" horiz-adv-x="444" d="M20 524Q20 578 32 613T68 670Q92 690 129 698T220 707Q318 707 364 664T411 521Q411 496 407 471T392 423T363 386T316 366V364Q350 358 371 342T403 303T418 252T422 194Q422 86 366 39T204 -9Q152
-9 116 1T56 34T23 95T12 189H153Q153 172 153 155T159 124T177 102T212 93Q236 93 250 103T270 128T279 163T281 201Q281 239 275 260T253 292T212 305T150 308V419Q184 417 207 419T244 432T264 464T270 522Q270 536 269 551T261 578T245 597T216 605Q197 605
186 598T170 580T163 554T161 524H20Z" />
<glyph unicode="4" glyph-name="four" horiz-adv-x="444" d="M250 267L259 600H257L130 267H250ZM22 300Q64 399 93 466T140 578T169 647T184 682T190 696L191 698H376V267H431V159H376V0H238V159H22V300Z" />
<glyph unicode="5" glyph-name="five" horiz-adv-x="444" d="M175 416L177 414Q194 439 220 450T278 461Q321 461 349 447T395 403T420 331T427 231Q427 161 414 115T375 41T308 2T214 -9Q170 -9 136 0T77 30T40 84T29 164H170Q170 150 172 137T180 114Q186 104
196 99T223 93Q265 93 275 126T286 231Q286 248 286 272T280 318T263 355T226 371Q211 371 201 364T184 344T176 319T173 293H37V698H402V590H175V416Z" />
<glyph unicode="6" glyph-name="six" horiz-adv-x="444" d="M218 93Q236 93 248 99T268 120T279 161T283 228Q283 294 271 324T219 355Q198 355 187 346T169 319T162 275T160 216Q160 201 161 180T167 139T184 107T218 93ZM270 547Q272 575 261 592Q255 601 246
606T221 611Q198 611 185 604T166 574T159 510T157 403Q172 416 184 425T208 440T235 448T269 451Q318 451 348 432T395 381T418 309T424 229Q424 175 414 131T378 56T313 8T214 -9Q146 -9 107 17T49 87T24 183T19 290Q19 394 24 472T51 603T115 681T233 707Q273
707 306 698T365 670T403 621T417 547H270Z" />
<glyph unicode="7" glyph-name="seven" horiz-adv-x="444" d="M406 565L236 0H79L270 590H31V698H406V565Z" />
<glyph unicode="8" glyph-name="eight" horiz-adv-x="444" d="M222 605Q204 605 193 596T176 572T169 543T167 514Q167 500 168 484T175 454T192 430T222 420Q241 420 252 429T268 453T275 484T277 514Q277 527 276 542T268 572T251 595T222 605ZM222 312Q198
312 186 299T168 266T162 225T161 188Q161 173 163 157T171 126T190 102T222 93Q242 93 254 102T272 125T281 156T283 188Q283 204 283 225T277 265T259 298T222 312ZM222 -9Q122 -9 71 35T20 179Q20 211 23 240T38 293T69 337T123 368V370Q93 377 75 391T45 425T30
469T26 522Q26 618 75 662T222 707Q319 707 368 663T418 522Q418 494 414 470T399 426T370 392T321 370V368Q355 356 375 337T406 294T420 240T424 179Q424 80 373 36T222 -9Z" />
<glyph unicode="9" glyph-name="nine" horiz-adv-x="444" d="M160 487Q160 471 161 450T167 411T185 379T220 366Q242 366 255 379T274 412T281 452T283 490Q283 506 282 527T274 567T256 598T221 611Q198 611 186 598T168 565T161 525T160 487ZM169 164Q169 150
171 138T179 115Q185 105 195 99T221 93Q247 93 260 104T278 142T283 211Q283 254 283 316Q237 270 167 270Q127 270 99 286T53 329T27 390T19 459Q19 510 28 555T59 634T120 687T218 707Q296 707 337 678T398 600T421 485T424 346Q424 303 423 260T416 178T397
104T361 45T303 6T217 -9Q172 -9 137 -1T77 28T40 81T29 164H169Z" />
<glyph unicode=":" glyph-name="colon" horiz-adv-x="222" d="M171 0H51V132H171V0ZM171 505V373H51V505H171Z" />
<glyph unicode=";" glyph-name="semicolon" horiz-adv-x="222" d="M51 375V505H171V375H51ZM53 132H184L108 -97H12L53 132Z" />
<glyph unicode="&lt;" glyph-name="less" horiz-adv-x="500" d="M459 87V-24L42 201V300L459 527V416L162 249L459 87Z" />
<glyph unicode="=" glyph-name="equal" horiz-adv-x="500" d="M475 99H25V210H475V99ZM475 295H25V406H475V295Z" />
<glyph unicode="&gt;" glyph-name="greater" horiz-adv-x="500" d="M338 249L41 416V527L458 300V201L41 -24V87L338 249Z" />
<glyph unicode="?" glyph-name="question" horiz-adv-x="444" d="M155 0V120H275V0H155ZM162 193V296Q162 329 179 362T216 428Q236 461 252 494T269 560Q269 590 258 611T211 632Q191 632 180 623T164 598T158 565T157 529H37Q37 556 39 591T59 658T115 712T225
734Q263 734 296 724T354 693T393 642T407 571Q407 509 385 467T336 392Q323 375 310 360T287 330T271 299T265 265V193H162Z" />
<glyph unicode="@" glyph-name="at" horiz-adv-x="795" d="M420 483Q398 483 380 470T348 435T328 383T321 319Q321 302 324 287T333 259T351 239T378 231Q398 231 417 239T452 267T476 320T485 406Q485 441 468 462T420 483ZM576 345Q574 335 572 319T567 288T562
261T560 247Q560 241 564 236T579 231Q597 231 615 246T648 285T672 341T682 407Q683 465 669 506T630 576T576 622T515 648T459 661T416 664Q353 664 298 641T202 576T137 480T113 362Q113 299 136 244T201 148T298 82T416 58Q479 58 535 83T628 146H719Q695 110
662 81T589 31T505 -1T416 -12Q338 -12 270 17T152 97T72 216T43 362Q43 440 72 507T151 625T270 705T416 734Q511 734 575 702T679 624T735 526T752 434Q752 375 734 324T686 235T616 174T533 152Q512 152 491 166T465 208L463 210Q440 181 408 167T347 152Q313
152 289 168T250 210T228 266T221 326Q221 369 233 410T268 483T327 534T408 553Q446 553 470 540T507 495H509L518 540H611L576 345Z" />
<glyph unicode="A" glyph-name="A" horiz-adv-x="611" d="M299 583H297L228 271H372L299 583ZM8 0L208 722H407L603 0H444L404 160H198L157 0H8Z" />
<glyph unicode="B" glyph-name="B" horiz-adv-x="611" d="M216 427H317Q329 427 343 431T369 446T388 475T396 519Q396 559 372 585T309 611H216V427ZM216 111H300Q312 111 329 112T363 124T392 154T404 213Q404 261 383 288T304 316H216V111ZM65 0V722H333Q376
722 414 715T481 687T526 630T543 535Q543 472 513 430T420 376V374Q460 368 486 353T527 314T549 259T555 191Q555 145 543 113T512 60T468 27T418 9T371 2T332 0H65Z" />
<glyph unicode="C" glyph-name="C" horiz-adv-x="556" d="M305 -12Q212 -12 161 19T87 103T60 223T56 361Q56 433 60 500T87 619T161 702T305 734Q421 734 470 673T515 494H367Q367 566 353 596T305 626Q273 626 254 611T225 563T212 481T209 361Q209 292 212
242T225 159T254 112T305 96Q331 96 345 111T365 148T372 196T374 243H523Q523 171 509 122T467 43T399 1T305 -12Z" />
<glyph unicode="D" glyph-name="D" horiz-adv-x="611" d="M217 111H290Q324 111 345 124T379 168T395 245T400 361Q400 411 399 456T387 535T356 590T295 611H217V111ZM66 722H318Q392 722 438 698T509 628T544 516T553 365Q553 337 553 299Q553 262 548 221T530
141T489 70T419 20T312 0H66V722Z" />
<glyph unicode="E" glyph-name="E" horiz-adv-x="500" d="M63 0V722H457V611H214V433H438V322H214V111H465V0H63Z" />
<glyph unicode="F" glyph-name="F" horiz-adv-x="444" d="M60 0V722H435V611H211V426H425V315H211V0H60Z" />
<glyph unicode="G" glyph-name="G" horiz-adv-x="611" d="M393 500Q393 525 391 548T379 588T351 615T303 626Q268 626 249 604T221 545T211 460T209 359Q209 274 214 222T231 142T264 103T317 93Q336 93 355 97T392 107V267H310V378H543V12Q528 9 503 5T448 -3T390
-9T339 -12Q244 -12 188 8T102 74T65 192T56 367Q56 435 61 501T91 618T167 702T312 734Q367 734 411 719T486 674T531 601T543 500H393Z" />
<glyph unicode="H" glyph-name="H" horiz-adv-x="611" d="M392 433V722H543V0H392V322H219V0H68V722H219V433H392Z" />
<glyph unicode="I" glyph-name="I" horiz-adv-x="278" d="M63 0V722H214V0H63Z" />
<glyph unicode="J" glyph-name="J" horiz-adv-x="500" d="M444 722V168Q444 121 427 87T380 31T313 -1T235 -12Q156 -12 112 4T46 52T20 131T15 240H169Q169 218 168 193T172 147T191 111T235 96Q261 96 277 115T293 158V722H444Z" />
<glyph unicode="K" glyph-name="K" horiz-adv-x="556" d="M384 722H550L348 398L550 0H380L207 370H205V0H54V722H205V413H207L384 722Z" />
<glyph unicode="L" glyph-name="L" horiz-adv-x="444" d="M64 0V722H215V120H441V0H64Z" />
<glyph unicode="M" glyph-name="M" horiz-adv-x="833" d="M60 0V722H303L416 231H418L538 722H773V0H626V557H624L485 0H341L209 557H207V0H60Z" />
<glyph unicode="N" glyph-name="N" horiz-adv-x="667" d="M64 0V722H268L460 222H462V722H603V0H404L207 528H205V0H64Z" />
<glyph unicode="O" glyph-name="O" horiz-adv-x="611" d="M305 96Q337 96 356 111T385 159T398 241T401 361Q401 430 398 480T385 563T356 610T305 626Q273 626 254 611T225 563T212 481T209 361Q209 292 212 242T225 159T254 112T305 96ZM305 -12Q212 -12 161
19T87 103T60 223T56 361Q56 433 60 500T87 619T161 702T305 734Q398 734 449 703T523 619T550 500T554 361Q554 290 550 223T523 104T449 20T305 -12Z" />
<glyph unicode="P" glyph-name="P" horiz-adv-x="556" d="M215 405H299Q316 405 330 413T354 435T369 466T375 502Q375 524 372 544T359 579T333 602T291 611H215V405ZM64 722H336Q388 722 424 707T484 664T517 595T528 506Q528 475 522 438T494 369T433 316T327
294H215V0H64V722Z" />
<glyph unicode="Q" glyph-name="Q" horiz-adv-x="611" d="M305 101Q337 101 356 116T385 163T398 244T401 361Q401 430 398 480T385 563T356 610T305 626Q273 626 254 611T225 563T212 481T209 361Q209 293 212 244T225 164T254 117T305 101ZM607 0H394Q384 0
373 -1T351 -3Q340 -5 329 -6T307 -7Q223 -7 174 15T98 82T64 197T56 361Q56 433 60 500T87 619T161 702T305 734Q398 734 449 703T523 619T550 500T554 361Q554 303 549 260T533 185T505 130T466 88L468 86Q476 88 487 92T508 101T528 108T544 111H607V0Z" />
<glyph unicode="R" glyph-name="R" horiz-adv-x="556" d="M211 410H278Q300 410 315 420T339 445T351 480T355 516Q355 568 335 589T278 611H211V410ZM211 0H60V722H339Q417 722 462 674T508 533Q508 464 478 416T374 356V354Q386 352 408 348T451 330T489 289T505
212Q505 195 505 164T508 100T513 39T522 0H374Q359 33 359 69T358 140Q358 172 358 201T348 251T316 286T250 299H211V0Z" />
<glyph unicode="S" glyph-name="S" horiz-adv-x="556" d="M511 197Q511 127 488 86T429 23T347 -5T259 -12Q189 -12 146 7T79 58T49 133T45 223H196Q196 197 198 174T208 134T233 106T282 96Q320 96 339 118T358 178Q358 210 336 234T279 279T206 322T133 372T77
439T54 531Q54 573 65 610T104 674T177 718T292 734Q402 734 455 682T502 517H355Q355 537 353 556T343 591T322 616T285 626Q248 626 228 607T207 549Q207 515 229 491T286 447T359 407T432 359T488 293T511 197Z" />
<glyph unicode="T" glyph-name="T" horiz-adv-x="500" d="M493 722V602H325V0H174V602H6V722H493Z" />
<glyph unicode="U" glyph-name="U" horiz-adv-x="611" d="M551 722V210Q551 169 539 130T498 59T422 8T306 -12Q181 -12 121 48T60 210V722H211V220Q211 153 236 125T304 96Q354 96 377 128T400 220V722H551Z" />
<glyph unicode="V" glyph-name="V" horiz-adv-x="556" d="M5 722H162L274 197H276L402 722H551L360 0H183L5 722Z" />
<glyph unicode="W" glyph-name="W" horiz-adv-x="889" d="M-1 722H154L248 215H250L364 722H542L650 215H652L742 722H890L730 0H563L450 528H448L323 0H159L-1 722Z" />
<glyph unicode="X" glyph-name="X" horiz-adv-x="556" d="M16 722H188L291 485L392 722H549L369 365L552 0H381L270 249L159 0H3L190 378L16 722Z" />
<glyph unicode="Y" glyph-name="Y" horiz-adv-x="556" d="M196 250L7 722H172L280 417L395 722H549L347 250V0H196V250Z" />
<glyph unicode="Z" glyph-name="Z" horiz-adv-x="500" d="M36 722H471V591L167 111H478V0H22V132L325 611H36V722Z" />
<glyph unicode="[" glyph-name="bracketleft" horiz-adv-x="278" d="M44 755H256V668H155V-34H256V-121H44V755Z" />
<glyph unicode="\" glyph-name="backslash" horiz-adv-x="250" d="M24 722L332 0H225L-83 722H24Z" />
<glyph unicode="]" glyph-name="bracketright" horiz-adv-x="278" d="M234 -121H22V-34H123V668H22V755H234V-121Z" />
<glyph unicode="^" glyph-name="asciicircum" horiz-adv-x="500" d="M3 274L185 698H315L497 274H371L250 573L129 274H3Z" />
<glyph unicode="_" glyph-name="underscore" horiz-adv-x="500" d="M0 -125V-75H500V-125H0Z" />
<glyph unicode="`" glyph-name="grave" horiz-adv-x="278" d="M135 722L225 579H160L0 722H135Z" />
<glyph unicode="a" glyph-name="a" horiz-adv-x="500" d="M301 244Q275 243 253 242T214 234T188 209T179 157Q179 143 180 129T187 104T203 85T231 77Q262 77 277 95T297 140T302 194T301 244ZM439 94Q439 71 441 47T446 0H315L309 67H307Q284 28 253 9T175 -10Q138
-10 113 3T71 37T48 88T41 151Q41 214 63 249T121 300T205 320T301 323V362Q301 378 300 391T292 415T275 430T244 436Q226 436 215 430T199 413T193 388T191 359H53Q53 405 66 435T105 482Q129 500 162 507T237 515Q304 515 344 502T405 465T432 411T439 346V94Z"
/>
<glyph unicode="b" glyph-name="b" horiz-adv-x="500" d="M254 77Q292 77 303 119T314 257Q314 295 313 326T307 380T289 415T254 428Q232 428 221 416T204 381T198 327T197 257Q197 162 207 120T254 77ZM56 722H197V457H199Q221 489 248 502T314 515Q367 515
395 489T436 424T450 340T452 256Q452 217 451 171T436 84T395 17T311 -10Q270 -10 241 4T192 56H190V0H56V722Z" />
<glyph unicode="c" glyph-name="c" horiz-adv-x="500" d="M313 325Q313 382 298 403T250 425Q227 425 215 415T195 386T187 336T185 267Q185 209 188 173T198 116T217 88T250 80Q283 80 299 108T315 186H456Q456 83 403 37T250 -10Q182 -10 141 10T79 65T51 150T44
259Q44 311 50 357T77 439T139 494T250 515Q347 515 400 470T454 325H313Z" />
<glyph unicode="d" glyph-name="d" horiz-adv-x="500" d="M244 77Q280 77 290 119T301 257Q301 295 300 326T294 380T278 415T244 428Q221 428 209 416T192 381T185 327T184 257Q184 162 195 120T244 77ZM308 0V56H306Q286 19 257 5T187 -10Q132 -10 103 17T62
84T48 170T46 256Q46 294 47 339T61 424T102 489T184 515Q222 515 249 502T299 457H301V722H442V0H308Z" />
<glyph unicode="e" glyph-name="e" horiz-adv-x="500" d="M315 309Q315 327 315 348T308 387T289 416T250 428Q226 428 213 416T194 385T187 346T186 309H315ZM186 230Q186 207 187 181T195 133T214 95T250 80Q269 80 280 88T298 109T307 138T310 170H453Q450
85 399 39Q374 16 337 3T250 -10Q182 -10 141 10T79 65T51 150T44 259Q44 311 50 357T77 439T139 494T250 515Q321 515 363 493T426 433T452 343T456 230H186Z" />
<glyph unicode="f" glyph-name="f" horiz-adv-x="278" d="M273 635Q230 638 217 621T204 566V505H270V418H204V0H63V418H0V505H64Q64 559 64 600T78 670T125 712T223 727Q236 727 248 727T273 725V635Z" />
<glyph unicode="g" glyph-name="g" horiz-adv-x="500" d="M182 237Q182 219 182 194Q182 170 187 148T204 110T243 94Q281 94 291 133T301 254Q301 296 300 328T292 382T275 416T244 428Q224 428 212 420T193 391T184 332T182 237ZM442 505V-21Q442 -34 440 -62T419
-120T362 -172T250 -194Q211 -194 176 -188T113 -166T70 -120T52 -44H190Q190 -60 192 -73T202 -95Q216 -115 249 -115Q275 -115 288 -92T301 -31V66H299Q283 37 255 22T192 7Q134 7 104 31T60 92T46 175T44 263Q44 305 46 349T63 430T108 491T193 515Q231 515
261 498T306 446H308V505H442Z" />
<glyph unicode="h" glyph-name="h" horiz-adv-x="500" d="M303 0V348Q303 382 294 405T250 428Q216 428 207 405T197 348V0H56V722H197V454H199Q219 487 249 501Q277 515 318 515Q343 515 366 508T406 486T433 452T444 405V0H303Z" />
<glyph unicode="i" glyph-name="i" horiz-adv-x="278" d="M209 722V611H68V722H209ZM209 0H68V505H209V0Z" />
<glyph unicode="j" glyph-name="j" horiz-adv-x="278" d="M209 722V611H68V722H209ZM209 505V-46Q209 -125 176 -158T78 -191Q55 -191 31 -188V-99Q43 -99 55 -93T68 -60V505H209Z" />
<glyph unicode="k" glyph-name="k" horiz-adv-x="500" d="M53 0V722H194V292H196L323 505H470L327 280L486 0H327L196 275H194V0H53Z" />
<glyph unicode="l" glyph-name="l" horiz-adv-x="278" d="M209 722V0H68V722H209Z" />
<glyph unicode="m" glyph-name="m" horiz-adv-x="722" d="M186 454H188Q209 488 238 501T307 515Q345 515 374 498T420 451Q445 484 476 499T551 515Q576 515 599 508T639 486T666 452T677 405V0H536V348Q536 382 527 405T483 428Q449 428 440 405T430 348V0H292V348Q292
382 283 405T239 428Q205 428 196 405T186 348V0H45V505H186V454Z" />
<glyph unicode="n" glyph-name="n" horiz-adv-x="500" d="M197 454H199Q219 487 249 501Q277 515 318 515Q343 515 366 508T406 486T433 452T444 405V0H303V348Q303 382 294 405T250 428Q216 428 207 405T197 348V0H56V505H197V454Z" />
<glyph unicode="o" glyph-name="o" horiz-adv-x="500" d="M250 80Q269 80 282 87T302 115T312 172T315 267Q315 306 314 336T305 385T285 415T250 425Q227 425 215 415T195 386T187 336T185 267Q185 209 188 173T198 116T217 88T250 80ZM250 -10Q182 -10 141 10T79
65T51 150T44 259Q44 311 50 357T77 439T139 494T250 515Q320 515 361 495T423 439T450 358T456 259Q456 200 450 151T422 66T359 10T250 -10Z" />
<glyph unicode="p" glyph-name="p" horiz-adv-x="500" d="M254 77Q292 77 303 119T314 257Q314 295 313 326T307 380T289 415T254 428Q232 428 221 416T204 381T198 327T197 257Q197 162 207 120T254 77ZM190 505V449H192Q212 486 241 500T311 515Q366 515 394
488T436 421T450 335T452 249Q452 211 451 166T437 81T396 16T314 -10Q276 -10 249 3T199 48H197V-217H56V505H190Z" />
<glyph unicode="q" glyph-name="q" horiz-adv-x="500" d="M246 77Q282 77 292 119T303 257Q303 295 302 326T296 380T280 415T246 428Q223 428 211 416T194 381T187 327T186 257Q186 162 197 120T246 77ZM444 -217H303V48H301Q279 16 252 3T186 -10Q133 -10 105
16T64 81T50 165T48 249Q48 288 49 334T63 421T105 488T189 515Q230 515 259 501T308 449H310V505H444V-217Z" />
<glyph unicode="r" glyph-name="r" horiz-adv-x="333" d="M190 505V440H192Q212 484 246 499T323 515V389Q276 392 251 382T213 354T199 315T197 275V0H56V505H190Z" />
<glyph unicode="s" glyph-name="s" horiz-adv-x="444" d="M167 162Q166 145 167 129T174 101Q180 89 192 83T225 77Q246 77 261 90T277 129Q277 156 259 173T213 204T153 231T94 262T48 306T29 373Q29 414 47 441T94 484T158 508T228 515Q264 515 297 506T354
479T392 431T403 360H265Q265 412 251 425Q244 432 235 434T215 436Q192 436 180 422T167 382Q167 362 185 348T231 321T291 294T350 260T396 212T415 144Q415 111 402 83T365 34T305 2T226 -10Q180 -10 143 -3T79 23T39 75T29 162H167Z" />
<glyph unicode="t" glyph-name="t" horiz-adv-x="278" d="M-1 505H56V585L197 648V505H270V418H197V148Q197 134 197 122T202 102T215 90T242 85Q249 85 255 85Q262 85 267 87V0Q253 -2 237 -3T194 -5Q148 -5 121 8T80 39T61 76T56 107V418H-1V505Z" />
<glyph unicode="u" glyph-name="u" horiz-adv-x="500" d="M303 51H301Q280 17 251 4T182 -10Q157 -10 134 -3T94 19T67 53T56 100V505H197V155Q197 121 206 99T250 77Q284 77 293 99T303 155V505H444V100Q444 75 445 50T449 0H303V51Z" />
<glyph unicode="v" glyph-name="v" horiz-adv-x="444" d="M8 505H151L222 126H224L298 505H436L297 0H142L8 505Z" />
<glyph unicode="w" glyph-name="w" horiz-adv-x="778" d="M11 505H151L220 125H222L319 505H465L554 125H556L632 505H767L630 0H482L391 345H389L287 0H137L11 505Z" />
<glyph unicode="x" glyph-name="x" horiz-adv-x="500" d="M145 0H5L154 265L17 505H175L249 352L334 505H475L340 263L485 0H326L238 177L145 0Z" />
<glyph unicode="y" glyph-name="y" horiz-adv-x="444" d="M146 -4L9 505H149L221 150H223L299 505H435L240 -191H92L146 -4Z" />
<glyph unicode="z" glyph-name="z" horiz-adv-x="389" d="M363 405L162 90H366V0H23V100L221 415H30V505H363V405Z" />
<glyph unicode="{" glyph-name="braceleft" horiz-adv-x="274" d="M50 625Q50 691 75 723T166 755H240V676Q215 676 200 667T176 642T164 607T161 566V454Q161 401 146 370T79 328V326Q106 322 122 310T146 279T158 238T161 191V67Q161 48 164 29T175 -6T199 -32T240
-42V-121H175Q137 -121 113 -112T74 -85T55 -38T50 27V183Q50 205 46 223T33 254T8 275T-32 283V370Q-8 370 7 378T32 401T46 434T50 471V625Z" />
<glyph unicode="|" glyph-name="bar" horiz-adv-x="250" d="M69 750H180V-250H69V750Z" />
<glyph unicode="}" glyph-name="braceright" horiz-adv-x="274" d="M229 471Q229 452 233 434T246 402T271 379T311 370V283Q287 283 272 276T247 255T233 223T229 183V27Q229 -10 224 -38T205 -84T167 -112T104 -121H39V-42Q64 -42 79 -32T103 -7T115 28T118
67V191Q118 215 121 237T132 278T157 309T200 326V328Q149 339 134 370T118 454V566Q118 587 115 607T104 642T80 666T39 676V755H113Q178 755 203 723T229 625V471Z" />
<glyph unicode="~" glyph-name="asciitilde" horiz-adv-x="500" d="M475 283Q463 263 451 242T424 204T390 177T346 166Q323 166 296 176T243 199T194 221T160 232Q145 232 134 224T113 204T97 178T83 150L25 224Q36 245 49 267T78 307T115 336T159 348Q183 348
209 338T261 315T308 293T346 282Q360 282 370 289T389 308T404 332T418 356L475 283Z" />
<glyph unicode="&#x80;" glyph-name="Euro" horiz-adv-x="444" d="M54 307V382H5L24 464L56 465V486Q56 601 104 655T249 709Q301 709 336 697T392 662T423 604T433 523H310Q310 561 298 580T251 599Q210 599 199 572T187 498V465H347L328 382H186V307H311L292
223H187V198Q187 141 200 116T254 91Q289 91 301 109T313 170H434Q434 74 390 30T249 -15Q194 -15 157 -3T98 36T65 102T55 197V223H5L24 307H54Z" />
</font>
</defs>
</svg>
